<?xml version="1.0" standalone="no"?>
<!DOCTYPE svg PUBLIC "-//W3C//DTD SVG 20010904//EN"
 "http://www.w3.org/TR/2001/REC-SVG-20010904/DTD/svg10.dtd">
<svg version="1.0" xmlns="http://www.w3.org/2000/svg"
 width="177.000000pt" height="176.000000pt" viewBox="0 0 177.000000 176.000000"
 preserveAspectRatio="xMidYMid meet">

<g transform="translate(0.000000,176.000000) scale(0.100000,-0.100000)"
fill="#388087" stroke="none">
<path d="M755 1685 c-233 -39 -423 -160 -554 -354 -90 -133 -122 -237 -128
-422 -5 -126 -3 -156 16 -229 74 -295 302 -523 597 -599 23 -6 110 -12 195
-13 124 -2 166 2 214 16 286 86 486 281 575 561 31 99 39 282 16 394 -70 346
-345 601 -700 650 -95 13 -128 13 -231 -4z m-92 -365 c8 -11 60 -126 117 -255
56 -129 105 -235 109 -235 3 0 56 114 116 253 101 232 112 252 135 252 23 0
34 -21 141 -264 l117 -264 -44 -95 c-51 -110 -54 -135 -18 -159 24 -15 29 -15
53 -2 27 16 27 16 19 118 -5 64 37 46 61 -27 17 -50 8 -86 -29 -123 -51 -52
-140 -36 -175 31 -22 43 -19 62 28 163 l44 93 -36 82 c-19 45 -38 82 -41 82
-3 0 -39 -80 -80 -177 -80 -190 -112 -238 -184 -275 -29 -15 -61 -22 -106 -22
-55 -1 -74 4 -120 30 -73 41 -101 84 -184 287 -38 92 -70 166 -71 165 -1 -2
-19 -41 -39 -87 l-36 -83 40 -87 c51 -112 52 -151 6 -197 -28 -28 -42 -34 -76
-34 -34 0 -48 6 -76 34 -39 39 -45 88 -16 145 19 38 30 45 52 31 13 -8 13 -15
-3 -55 -18 -51 -12 -76 23 -95 24 -13 67 5 76 33 4 12 -11 56 -41 122 l-46
102 112 254 c61 140 116 260 121 267 15 18 35 15 51 -8z"/>
<path d="M618 1213 c-9 -21 -28 -66 -43 -100 l-28 -62 48 -116 47 -115 28 43
c14 23 41 55 59 69 l32 27 -61 143 c-34 78 -62 144 -64 145 -2 2 -10 -14 -18
-34z"/>
<path d="M1076 1101 l-58 -140 35 -30 c19 -17 44 -50 55 -72 24 -48 19 -53 81
93 l41 97 -42 95 c-23 53 -44 96 -48 96 -3 0 -32 -63 -64 -139z"/>
<path d="M753 877 c-44 -46 -54 -71 -54 -133 0 -59 28 -123 66 -148 21 -14 23
-11 57 69 l35 83 -33 78 c-19 42 -35 79 -37 81 -2 1 -17 -12 -34 -30z"/>
<path d="M951 824 c-36 -85 -37 -70 18 -198 l22 -49 25 24 c60 56 80 142 49
217 -18 41 -52 82 -70 82 -7 0 -27 -34 -44 -76z"/>
<path d="M862 617 c-12 -29 -22 -56 -22 -60 0 -8 84 -10 92 -1 6 5 -28 92 -41
107 -4 4 -17 -17 -29 -46z"/>
</g>
</svg>
